# File created by Blade
# Date/Time:  Wed Apr 08 17:00:17 2015
# Frame Rate: 120.000 fps
#------------------------------------------------------
:FULLY-SPECIFIED
:DEGREES
1465
root 1.058464 35.667869 2.914901 -27.799068 -78.649140 14.674821
Spine 6.821088 2.741588 -8.697935
Head -3.792811 3.227687 -7.958101
LeftShoulder 7.667894 -0.250628 24.275177
LeftArm 89.923106 45.325104 -44.010876
LeftForeArm -46.350462 0.000000 93.799606
LeftHand -30.750593 0.000000 19.079375
LeftHandThumb1 -26.253704 0.000000 33.147579
RightShoulder 0.414908 -31.823397 -23.616922
RightArm 114.572055 12.532552 111.503176
RightForeArm 66.174254 -0.000000 134.413222
RightHand 14.153131 -0.000000 8.220856
RightHandThumb1 -24.326973 -0.000000 -32.862282
LeftUpLeg 14.715184 6.588917 5.671508
LeftLeg 12.339453 -0.000000 -0.000000
LeftFoot -14.458135 -2.955213 -11.966634
LeftToeBase 10.267027 -0.000000 -0.000000
RightUpLeg 24.591970 -18.021539 -18.271128
RightLeg 1.567356 -0.000000 -0.000000
RightFoot -11.885906 5.658199 20.049574
RightToeBase 14.607600 -0.000000 -0.000000
1466
root 1.065598 35.668325 2.915876 -27.910532 -78.714037 14.792064
Spine 6.818028 2.688894 -8.653231
Head -3.819747 3.310685 -8.031251
LeftShoulder 7.684445 -0.279920 24.286987
LeftArm 89.997623 45.290480 -43.868194
LeftForeArm -46.360689 -0.000000 93.842667
LeftHand -30.833377 -0.000000 19.165280
LeftHandThumb1 -26.253704 0.000000 33.147579
RightShoulder 0.419014 -31.812880 -23.583447
RightArm 114.426367 12.509937 111.803800
RightForeArm 65.811452 -0.000000 134.196204
RightHand 14.747492 0.000000 6.802833
RightHandThumb1 -24.326973 -0.000000 -32.862282
LeftUpLeg 14.713218 6.630068 5.667624
LeftLeg 12.339357 -0.000000 -0.000000
LeftFoot -14.450053 -2.937628 -11.990502
LeftToeBase 10.253173 -0.000000 -0.000000
RightUpLeg 24.531800 -17.948765 -18.244437
RightLeg 1.594283 -0.000000 -0.000000
RightFoot -11.905338 5.649220 20.051747
RightToeBase 14.647447 -0.000000 -0.000000
1467
root 1.072445 35.668012 2.916438 -28.005323 -78.767967 14.886552
Spine 6.820929 2.604124 -8.614206
Head -3.853860 3.395284 -8.103706
LeftShoulder 7.685931 -0.281861 24.309643
LeftArm 90.079929 45.244570 -43.730757
LeftForeArm -46.324804 -0.000000 93.892175
LeftHand -30.943339 -0.000000 19.298027
LeftHandThumb1 -26.253704 0.000000 33.147579
RightShoulder 0.455667 -31.777551 -23.560684
RightArm 114.263410 12.456779 112.159814
RightForeArm 65.726143 -0.000000 133.879117
RightHand 15.112711 -0.000000 5.473969
RightHandThumb1 -24.326973 -0.000000 -32.862282
LeftUpLeg 14.707570 6.665131 5.666003
LeftLeg 12.353981 -0.000000 -0.000000
LeftFoot -14.460729 -2.914326 -11.995227
LeftToeBase 10.249136 -0.000000 -0.000000
RightUpLeg 24.481796 -17.902213 -18.233731
RightLeg 1.626501 -0.000000 -0.000000
RightFoot -11.911644 5.668430 20.051261
RightToeBase 14.643931 -0.000000 -0.000000
1468
root 1.078851 35.668387 2.917443 -28.070459 -78.820017 14.946172
Spine 6.826087 2.524806 -8.556678
Head -3.863513 3.498359 -8.202074
LeftShoulder 7.712203 -0.286793 24.315350
LeftArm 90.134964 45.214000 -43.598579
LeftForeArm -46.198299 -0.000000 93.922203
LeftHand -30.939992 -0.000000 19.278623
LeftHandThumb1 -26.253704 0.000000 33.147579
RightShoulder 0.484433 -31.747880 -23.537075
RightArm 114.107486 12.393336 112.501030
RightForeArm 65.746057 -0.000000 133.499322
RightHand 15.333658 -0.000000 4.117166
RightHandThumb1 -24.326973 -0.000000 -32.862282
LeftUpLeg 14.707529 6.703903 5.674865
LeftLeg 12.368105 -0.000000 -0.000000
LeftFoot -14.460265 -2.912570 -11.985777
LeftToeBase 10.235784 -0.000000 -0.000000
RightUpLeg 24.441680 -17.850340 -18.217741
RightLeg 1.655230 -0.000000 -0.000000
RightFoot -11.916889 5.697327 20.104501
RightToeBase 14.707234 -0.000000 -0.000000
1469
root 1.085387 35.668554 2.918813 -28.148560 -78.867643 15.020603
Spine 6.832568 2.438162 -8.514836
Head -3.884807 3.603484 -8.280764
LeftShoulder 7.733566 -0.311998 24.355753
LeftArm 90.201625 45.201499 -43.471900
LeftForeArm -46.119933 -0.000000 93.940142
LeftHand -30.979103 -0.000000 19.394349
LeftHandThumb1 -26.253704 0.000000 33.147579
RightShoulder 0.528574 -31.722110 -23.501325
RightArm 113.978086 12.337647 112.828818
RightForeArm 65.832016 -0.000000 133.031750
RightHand 15.655674 0.000000 2.553777
RightHandThumb1 -24.326973 -0.000000 -32.862282
LeftUpLeg 14.708186 6.712369 5.668887
LeftLeg 12.373710 -0.000000 -0.000000
LeftFoot -14.462551 -2.892266 -12.022097
LeftToeBase 10.221702 -0.000000 -0.000000
RightUpLeg 24.395972 -17.805355 -18.205780
RightLeg 1.692806 -0.000000 -0.000000
RightFoot -11.925005 5.716982 20.125274
RightToeBase 14.690058 -0.000000 -0.000000
1470
root 1.091054 35.668121 2.919968 -28.203805 -78.924250 15.067055
Spine 6.845996 2.398679 -8.468974
Head -3.933876 3.658860 -8.316993
LeftShoulder 7.793832 -0.378076 24.441559
LeftArm 90.162544 45.232592 -43.509392
LeftForeArm -46.233989 -0.000000 93.954745
LeftHand -31.031209 0.000000 19.451371
LeftHandThumb1 -26.253704 0.000000 33.147579
RightShoulder 0.514279 -31.663037 -23.415004
RightArm 113.783486 12.355812 113.133019
RightForeArm 66.034526 -0.000000 132.507531
RightHand 15.900404 -0.000000 1.048084
RightHandThumb1 -24.326973 -0.000000 -32.862282
LeftUpLeg 14.716923 6.742193 5.677765
LeftLeg 12.380721 -0.000000 -0.000000
LeftFoot -14.477715 -2.881311 -12.040113
LeftToeBase 10.242456 -0.000000 -0.000000
RightUpLeg 24.358340 -17.775315 -18.197523
RightLeg 1.727698 -0.000000 -0.000000
RightFoot -11.916833 5.760814 20.132215
RightToeBase 14.671065 -0.000000 -0.000000
1471
root 1.097055 35.668717 2.921287 -28.279492 -78.966406 15.126781
Spine 6.867249 2.311796 -8.426678
Head -3.955886 3.772237 -8.397813
LeftShoulder 7.813745 -0.383675 24.487708
LeftArm 90.191222 45.238808 -43.455332
LeftForeArm -46.216865 -0.000000 93.957220
LeftHand -31.123677 -0.000000 19.508152
LeftHandThumb1 -26.253704 0.000000 33.147579
RightShoulder 0.540855 -31.688860 -23.374074
RightArm 113.673770 12.259388 113.450280
RightForeArm 66.447821 -0.000000 131.912850
RightHand 16.199039 0.000000 -0.376301
RightHandThumb1 -24.326973 -0.000000 -32.862282
LeftUpLeg 14.734784 6.763741 5.679814
LeftLeg 12.377836 -0.000000 -0.000000
LeftFoot -14.477167 -2.869209 -12.047022
LeftToeBase 10.247852 -0.000000 -0.000000
RightUpLeg 24.335604 -17.750925 -18.200420
RightLeg 1.757816 -0.000000 -0.000000
RightFoot -11.912280 5.791128 20.138667
RightToeBase 14.680538 -0.000000 -0.000000
1472
root 1.102009 35.669127 2.922574 -28.414491 -79.026405 15.244741
Spine 6.887719 2.239483 -8.391195
Head -4.013369 3.850824 -8.454749
LeftShoulder 7.828731 -0.381066 24.537082
LeftArm 90.241863 45.250897 -43.391190
LeftForeArm -46.219384 -0.000000 93.987860
LeftHand -31.140421 0.000000 19.805154
LeftHandThumb1 -26.253704 0.000000 33.147579
RightShoulder 0.569957 -31.627746 -23.342481
RightArm 113.500766 12.186743 113.771210
RightForeArm 67.051360 -0.000000 131.252625
RightHand 16.592682 -0.000000 -1.885663
RightHandThumb1 -24.326973 -0.000000 -32.862282
LeftUpLeg 14.768192 6.816695 5.685428
LeftLeg 12.360976 -0.000000 -0.000000
LeftFoot -14.473733 -2.862340 -12.052429
LeftToeBase 10.275185 -0.000000 -0.000000
RightUpLeg 24.315634 -17.731967 -18.211689
RightLeg 1.773854 -0.000000 -0.000000
RightFoot -11.894168 5.830314 20.121522
RightToeBase 14.670509 -0.000000 -0.000000
1473
root 1.106341 35.669692 2.923731 -28.520329 -79.090508 15.324173
Spine 6.917387 2.181819 -8.340923
Head -4.082474 3.886048 -8.524476
LeftShoulder 7.854793 -0.385579 24.582075
LeftArm 90.241851 45.281689 -43.366502
LeftForeArm -46.208100 0.000000 94.016949
LeftHand -31.114174 -0.000000 19.912728
LeftHandThumb1 -26.253704 0.000000 33.147579
RightShoulder 0.605031 -31.634438 -23.337219
RightArm 113.368948 12.091070 114.154200
RightForeArm 67.520843 -0.000000 130.587622
RightHand 16.842482 -0.000000 -3.095518
RightHandThumb1 -24.326973 -0.000000 -32.862282
LeftUpLeg 14.817107 6.841025 5.689561
LeftLeg 12.330017 -0.000000 -0.000000
LeftFoot -14.479123 -2.824800 -12.073407
LeftToeBase 10.306394 -0.000000 -0.000000
RightUpLeg 24.304300 -17.690682 -18.205877
RightLeg 1.788542 -0.000000 -0.000000
RightFoot -11.880991 5.851697 20.084448
RightToeBase 14.645190 -0.000000 -0.000000
1474
root 1.110507 35.670760 2.925400 -28.671854 -79.152715 15.453565
Spine 6.945807 2.126227 -8.305357
Head -4.171629 3.927621 -8.582965
LeftShoulder 7.855505 -0.374594 24.619246
LeftArm 90.289323 45.299083 -43.308651
LeftForeArm -46.184816 -0.000000 94.027886
LeftHand -31.159887 0.000000 19.925751
LeftHandThumb1 -26.253704 0.000000 33.147579
RightShoulder 0.619372 -31.499206 -23.289970
RightArm 113.147544 12.024049 114.501885
RightForeArm 67.809679 -0.000000 129.862148
RightHand 16.937969 0.000000 -4.194383
RightHandThumb1 -24.326973 -0.000000 -32.862282
LeftUpLeg 14.872171 6.861791 5.688546
LeftLeg 12.284524 -0.000000 -0.000000
LeftFoot -14.461880 -2.813884 -12.121035
LeftToeBase 10.302101 -0.000000 -0.000000
RightUpLeg 24.293872 -17.679097 -18.223283
RightLeg 1.799639 -0.000000 -0.000000
RightFoot -11.855534 5.897680 20.051850
RightToeBase 14.641697 -0.000000 -0.000000
1475
root 1.114601 35.671292 2.927032 -28.774503 -79.226587 15.537779
Spine 6.970196 2.089284 -8.245216
Head -4.267032 3.964258 -8.674044
LeftShoulder 7.849995 -0.362786 24.656449
LeftArm 90.343408 45.305036 -43.263045
LeftForeArm -46.334059 -0.000000 94.037312
LeftHand -31.276976 -0.000000 19.921303
LeftHandThumb1 -26.253704 0.000000 33.147579
RightShoulder 0.607552 -31.433802 -23.251738
RightArm 112.965143 11.944718 114.865130
RightForeArm 67.985441 0.000000 129.121117
RightHand 16.928832 -0.000000 -5.624469
RightHandThumb1 -24.326973 -0.000000 -32.862282
LeftUpLeg 14.920995 6.926408 5.697659
LeftLeg 12.244960 -0.000000 -0.000000
LeftFoot -14.475967 -2.755160 -12.082348
LeftToeBase 10.338757 -0.000000 -0.000000
RightUpLeg 24.274376 -17.634981 -18.211378
RightLeg 1.807624 -0.000000 -0.000000
RightFoot -11.846222 5.910287 20.026457
RightToeBase 14.635759 -0.000000 -0.000000
1476
root 1.118790 35.672272 2.929002 -28.909951 -79.298863 15.654988
Spine 6.996000 2.043388 -8.192119
Head -4.381325 4.001287 -8.766149
LeftShoulder 7.848179 -0.357685 24.672273
LeftArm 90.474898 45.316133 -43.082302
LeftForeArm -46.243052 -0.000000 94.100752
LeftHand -31.349880 -0.000000 20.198464
LeftHandThumb1 -26.253704 0.000000 33.147579
RightShoulder 0.635547 -31.391498 -23.242072
RightArm 112.831605 11.862049 115.234347
RightForeArm 68.143500 -0.000000 128.380425
RightHand 17.171218 -0.000000 -6.782461
RightHandThumb1 -24.326973 -0.000000 -32.862282
LeftUpLeg 14.969290 6.982332 5.703539
LeftLeg 12.208724 -0.000000 -0.000000
LeftFoot -14.470458 -2.728471 -12.097947
LeftToeBase 10.350379 -0.000000 -0.000000
RightUpLeg 24.264436 -17.602795 -18.211074
RightLeg 1.799467 -0.000000 -0.000000
RightFoot -11.819772 5.936711 20.016079
RightToeBase 14.649491 -0.000000 -0.000000
